# xmcd
#
# Track frame offsets:
#	150
#	18887
#	35635
#	52002
#	71340
#	89125
#	104410
#	122037
#	137880
#	152105
#	171742
#	192165
#	209912
#	230600
#	249505
#	269092
#	289695
#	307020
#
# Disc length: 4283 seconds
#
# Revision: 0
# Processed by: cddbd v1.5.2PL0 Copyright (c) Steve Scherf et al.
# Submitted via: EasyCDDAExtractor 10.0.3.1
#
DISCID=2110b912
DTITLE=WESTLIFE - Unbreakable Vol 1 - THE GREATEST HITS
DYEAR=1900
DGENRE=Pop
TTITLE0=Swear It Again - RADIO EDIT
TTITLE1=If' I Let You Go - RADIO EDIT
TTITLE2=Flying Without Wings
TTITLE3=I Have A Dream - REMIX
TTITLE4=Fool Again - 2000 RAMIX
TTITLE5=Agains All Odds - with MARIAH CAREY
TTITLE6=My Love - RADIO EDIT
TTITLE7=I Lay My Love On You
TTITLE8=Uptown Girl - RADIO EDIT
TTITLE9=Queen Of My Heart - RADIO EDIT
TTITLE10=Bop Bop Baby
TTITLE11=When You're Looking Like That - SINGLE REMIX
TTITLE12=Unbreakable - SINGLE REMIX
TTITLE13=Written In The Stars
TTITLE14=How Does It Feel
TTITLE15=Tonight
TTITLE16=Love Takes Two
TTITLE17=Miss You Night
EXTD=
EXTT0=
EXTT1=
EXTT2=
EXTT3=
EXTT4=
EXTT5=
EXTT6=
EXTT7=
EXTT8=
EXTT9=
EXTT10=
EXTT11=
EXTT12=
EXTT13=
EXTT14=
EXTT15=
EXTT16=
EXTT17=
PLAYORDER=
